<svg width="456" height="123" viewBox="0 0 456 123" fill="none" xmlns="http://www.w3.org/2000/svg">
  <g clip-path="url(#clip0_2406_10458)">
  <path d="M-3.2545 14.5169C-3.2545 14.5169 6.94402 87.9092 94.7864 87.9092C182.629 87.9092 168.939 39.9899 239.105 39.9899C309.27 39.9899 285.947 89.9368 395.822 89.9368" stroke="#A094F8" stroke-width="5.14454" stroke-miterlimit="10" stroke-linecap="round"/>
  <path d="M95.1209 88.0342C182.671 88.0342 169.032 40.0851 238.968 40.0851" stroke="#67B9F7" stroke-width="5.14454" stroke-miterlimit="10" stroke-linecap="round"/>
  <path d="M238.968 40.0851C258.083 40.0851 270.266 43.7877 280.091 49.1758C306.355 63.5796 315.782 90.0321 395.802 90.0321" stroke="#EC5658" stroke-width="5.14454" stroke-miterlimit="10" stroke-linecap="round"/>
  <path d="M488.111 64.6299C479.85 73.6404 449.614 91.3346 394.754 90.0279" stroke="#FFCE1E" stroke-width="8.37112" stroke-linecap="round"/>
  <path d="M164.86 66.2358L126.535 56.503C125.382 56.2102 124.206 56.9265 123.907 58.1029L114.663 94.5015C114.365 95.6778 115.057 96.8688 116.21 97.1615L154.534 106.894C155.687 107.187 156.863 106.471 157.162 105.294L166.406 68.8958C166.705 67.7195 166.012 66.5285 164.86 66.2358Z" fill="#F5F4FE"/>
  <path d="M158.829 87.2682C158.743 87.0043 158.622 86.7542 158.468 86.5252C158.602 86.809 158.665 87.1225 158.651 87.4382C158.622 88.0822 158.442 89.6458 152.958 89.7451C148.355 89.5837 143.793 88.8625 139.368 87.597C134.752 86.2682 130.107 83.1144 126.746 81.492C124.071 80.2069 122.13 80.359 122.253 79.8234C122.377 79.2879 122.471 78.8167 122.559 78.3179C122.471 78.8167 122.369 79.3185 122.253 79.8234C121.751 82.0023 120.075 83.3747 121.638 84.762C123.451 86.3953 127.522 87.6375 130.229 88.3902C145.052 92.5195 154.787 92.9004 156.361 92.6356C160.772 91.8858 158.877 87.4303 158.829 87.2682Z" fill="white"/>
  <path d="M137.269 69.8699C137.578 69.8735 137.884 69.9184 138.18 70.0035C137.884 69.9184 137.578 69.8735 137.269 69.8699Z" fill="white"/>
  <path d="M138.486 70.105C138.667 70.1861 138.836 70.2925 138.987 70.4211C138.836 70.2925 138.667 70.1861 138.486 70.105Z" fill="white"/>
  <path d="M136.672 69.9108C136.866 69.8794 137.062 69.8639 137.258 69.8643C137.062 69.8639 136.866 69.8794 136.672 69.9108Z" fill="white"/>
  <path d="M123.292 71.7128C123.334 71.5475 123.372 71.3945 123.408 71.2537C123.36 71.3915 123.322 71.5445 123.292 71.7128Z" fill="white"/>
  <path d="M135.426 72.0969C135.37 71.6664 135.378 71.2291 135.449 70.7997C135.378 71.2291 135.37 71.6664 135.426 72.0969Z" fill="white"/>
  <path d="M123.094 73.9739C123.102 73.8194 123.11 73.6848 123.111 73.5808C123.11 73.6848 123.095 73.8439 123.094 73.9739Z" fill="white"/>
  <path d="M122.73 77.3687C122.8 76.8913 122.858 76.4369 122.908 76.0131C122.834 76.4308 122.8 76.8913 122.73 77.3687Z" fill="white"/>
  <path d="M122.955 75.6015C122.985 75.3353 123.009 75.0875 123.029 74.858C123.009 75.0875 122.985 75.3353 122.955 75.6015Z" fill="white"/>
  <path d="M139.434 71.1752C139.362 70.881 139.208 70.6153 138.989 70.4108C139.208 70.6153 139.362 70.881 139.434 71.1752Z" fill="white"/>
  <path d="M123.523 70.8517C123.641 70.4729 123.856 70.1317 124.144 69.8628C123.856 70.1317 123.641 70.4729 123.523 70.8517Z" fill="#A195F9"/>
  <path d="M123.395 71.253C123.433 71.1061 123.465 70.9776 123.498 70.8491C123.477 70.9806 123.433 71.1061 123.395 71.253Z" fill="#A195F9"/>
  <path d="M124.662 69.5836C124.821 69.5436 124.984 69.5279 125.147 69.5371C124.984 69.5279 124.821 69.5436 124.662 69.5836Z" fill="#A195F9"/>
  <path d="M150.034 82.4542C152.402 83.1858 157.004 84.224 158.463 86.5491C157.463 84.2495 152.336 83.1691 150.034 82.4542Z" fill="#A195F9"/>
  <path d="M134.231 72.5313C134.393 72.5724 134.549 72.612 134.693 72.6485C134.552 72.5993 134.396 72.5597 134.231 72.5313Z" fill="#A195F9"/>
  <path d="M128.659 74.3083C129.078 74.328 129.498 74.2594 129.892 74.1066C129.498 74.2594 129.078 74.328 128.659 74.3083Z" fill="#A195F9"/>
  <path d="M133.715 72.4783C133.888 72.484 134.061 72.5017 134.231 72.5313C134.061 72.5017 133.888 72.484 133.715 72.4783Z" fill="#A195F9"/>
  <path d="M128.66 74.3063C128.35 74.2895 128.05 74.1998 127.781 74.0441C128.05 74.1998 128.35 74.2895 128.66 74.3063Z" fill="#A195F9"/>
  <path d="M133.186 72.4986C133.361 72.4721 133.538 72.4647 133.715 72.4766C133.538 72.4647 133.361 72.4721 133.186 72.4986Z" fill="#A195F9"/>
  <path d="M129.892 74.1068C130.207 73.9905 130.514 73.8506 130.809 73.6881C130.514 73.8506 130.207 73.9905 129.892 74.1068Z" fill="#A195F9"/>
  <path d="M126.754 81.5101C130.115 83.1325 134.76 86.2863 139.377 87.6151C143.801 88.8807 148.363 89.6018 152.966 89.7632C158.438 89.6609 158.612 88.1218 158.66 87.4563C158.673 87.1406 158.61 86.8271 158.477 86.5433C157.005 84.2672 152.394 83.1938 150.049 82.4483C144.425 80.7076 141.05 76.9054 139.448 71.1692C139.377 70.8751 139.222 70.6094 139.004 70.4049C138.852 70.2763 138.684 70.1699 138.503 70.0887C138.407 70.0576 138.309 70.0327 138.209 70.0141C137.913 69.9291 137.607 69.8841 137.298 69.8805C137.102 69.8801 136.906 69.8956 136.712 69.927C136.337 69.9533 135.98 70.1085 135.7 70.3672C135.595 70.507 135.525 70.6704 135.496 70.8431C135.424 71.2725 135.417 71.7098 135.473 72.1403C135.504 72.4256 135.549 72.7089 135.609 72.9892C135.326 72.8592 135.032 72.7541 134.731 72.675C134.587 72.6385 134.431 72.5989 134.269 72.5577C134.098 72.5281 133.926 72.5104 133.753 72.5048C133.576 72.4928 133.399 72.5002 133.223 72.5268C132.961 72.5573 132.706 72.6386 132.473 72.7662C132.01 73.0329 131.449 73.4052 130.845 73.721C130.55 73.8835 130.243 74.0234 129.928 74.1396C129.535 74.2924 129.115 74.3611 128.696 74.3414C128.386 74.3246 128.086 74.2349 127.817 74.0792C126.273 73.1723 127.418 69.821 125.325 69.5892L125.187 69.5542C125.025 69.5449 124.861 69.5606 124.703 69.6006C124.513 69.6539 124.336 69.7491 124.185 69.8796C123.896 70.1484 123.682 70.4896 123.564 70.8684C123.531 70.997 123.498 71.1255 123.461 71.2724C123.424 71.4193 123.386 71.5662 123.344 71.7314C123.234 72.3489 123.173 72.9742 123.163 73.6009C123.139 73.6988 123.154 73.8396 123.147 73.9941C123.139 74.1486 123.112 74.5326 123.082 74.8768C123.062 75.1062 123.037 75.3541 123.008 75.6203L122.961 76.0318C122.911 76.4556 122.853 76.91 122.783 77.3873C122.735 77.701 122.681 78.0131 122.62 78.3558C122.531 78.8546 122.43 79.3565 122.314 79.8614C122.138 80.3771 124.08 80.225 126.754 81.5101Z" fill="#A195F9"/>
  <path d="M159.353 88.4957C159.425 89.0688 159.363 89.6523 159.173 90.1992C158.983 90.7462 158.67 91.2414 158.259 91.645C155.547 93.9793 146.142 92.1708 141.581 91.2273C135.963 90.0679 122.258 86.5676 121.2 84.1947C121.077 83.8302 121.03 83.4427 121.063 83.0572C121.096 82.6716 121.208 82.2967 121.392 81.9565C122.046 80.5614 122.525 79.0894 122.818 77.5754C123.027 75.8696 123.227 74.0766 123.306 72.3571C123.347 71.3444 123.405 70.2322 124.436 69.7186C124.681 69.5986 124.949 69.5393 125.22 69.5457C125.49 69.552 125.754 69.6238 125.991 69.7552C127.661 70.7201 126.188 73.3039 127.608 74.1987C127.817 74.3051 128.045 74.3679 128.279 74.3837C128.512 74.3995 128.747 74.3678 128.97 74.2905C130.337 73.9342 131.487 72.9753 132.856 72.6128C133.856 72.3649 134.906 72.4729 135.83 72.9188C136.755 73.3646 137.498 74.1213 137.936 75.0624C138.094 75.38 138.143 75.7433 138.076 76.0948C137.995 76.4131 137.562 76.9612 136.949 76.0302C136.304 74.9443 135.831 73.7601 135.548 72.5211C135.341 71.9631 135.324 71.3486 135.5 70.7758C135.813 70.0213 136.722 69.7832 137.521 69.8298C139.766 70.0154 140.056 72.8971 140.385 73.6386C142.202 77.6413 145.486 80.7513 149.541 82.3096C152.441 83.4568 156.273 84.1563 157.9 85.5924C158.226 85.8225 158.47 86.1538 158.596 86.5376C158.721 86.9215 158.722 87.3374 158.598 87.7241C158.256 88.8166 157.255 89.4158 155.625 89.5752C150.263 89.9987 143.813 88.8753 139.712 87.6254C136.928 86.8048 134.239 85.6853 131.692 84.2857C129.133 82.9255 126.914 80.7267 124.215 80.6471" stroke="#2B1B9E" stroke-width="0.75" stroke-linecap="round" stroke-linejoin="round"/>
  <path d="M138.001 78.6526C137.586 79.5586 137.368 80.5438 137.364 81.5398C137.369 81.8756 137.254 82.2031 137.04 82.4611C136.917 82.562 136.767 82.6232 136.61 82.6367C136.453 82.6503 136.296 82.6155 136.159 82.537C136.033 82.4526 135.927 82.34 135.85 82.2076C135.773 82.0752 135.727 81.9265 135.715 81.7726C135.694 81.6272 135.72 81.4782 135.79 81.3488C135.853 81.2551 135.934 81.1757 136.028 81.116C136.588 80.8207 137.188 80.6127 137.807 80.4991C138.117 80.4425 138.41 80.3126 138.663 80.12C138.916 79.9273 139.122 79.6773 139.263 79.3901C139.306 79.2903 139.319 79.1799 139.299 79.0734C139.257 78.9076 139.168 78.7583 139.044 78.6438C138.978 78.5706 138.897 78.5124 138.808 78.4729C138.718 78.4333 138.621 78.4133 138.523 78.4142C138.425 78.415 138.328 78.4366 138.238 78.4777C138.148 78.5187 138.067 78.5783 138.001 78.6526V78.6526Z" stroke="#2B1B9E" stroke-width="0.75" stroke-linecap="round" stroke-linejoin="round"/>
  <path d="M158.658 99.4053L157.161 105.299" stroke="#2B1B9E" stroke-width="0.75" stroke-linecap="round" stroke-linejoin="round"/>
  <path d="M157.161 105.301C157.017 105.865 156.66 106.351 156.167 106.651C155.674 106.951 155.086 107.041 154.533 106.9L116.208 97.1676C115.934 97.098 115.677 96.974 115.451 96.8026C115.224 96.6313 115.034 96.416 114.891 96.169C114.747 95.922 114.653 95.6481 114.614 95.3631C114.574 95.078 114.591 94.7873 114.662 94.5076L123.907 58.1029C123.978 57.8232 124.102 57.5599 124.273 57.3281C124.443 57.0964 124.657 56.9006 124.901 56.752C125.145 56.6035 125.415 56.505 125.695 56.4623C125.976 56.4195 126.261 56.4334 126.535 56.503L164.86 66.2358C165.413 66.3764 165.887 66.7356 166.177 67.2344C166.467 67.7333 166.549 68.3309 166.406 68.8958L159.589 95.7403" stroke="#2B1B9E" stroke-linecap="round" stroke-linejoin="round"/>
  <path d="M126.624 60.4261C127.111 60.5498 127.608 60.2472 127.735 59.7503C127.861 59.2534 127.568 58.7503 127.081 58.6267C126.594 58.503 126.097 58.8056 125.971 59.3025C125.845 59.7994 126.137 60.3025 126.624 60.4261Z" fill="#2B1B9E"/>
  <path d="M130.145 61.3202C130.632 61.4439 131.129 61.1413 131.255 60.6444C131.381 60.1475 131.089 59.6444 130.602 59.5208C130.115 59.3971 129.618 59.6997 129.491 60.1966C129.365 60.6935 129.658 61.1965 130.145 61.3202Z" fill="#2B1B9E"/>
  <path d="M330.38 96.2814L291.019 84.8864C290.888 84.8483 290.764 84.7885 290.655 84.7102C290.546 84.632 290.455 84.5369 290.385 84.4303C290.315 84.3238 290.269 84.2078 290.248 84.0892C290.228 83.9705 290.235 83.8515 290.267 83.7388L301.251 45.7993C301.315 45.5571 301.481 45.3517 301.717 45.2227C301.953 45.0936 302.243 45.0501 302.53 45.1005L341.833 56.618C341.964 56.656 342.088 56.7159 342.197 56.7941C342.306 56.8724 342.398 56.9675 342.467 57.0741C342.537 57.1806 342.584 57.2965 342.604 57.4152C342.624 57.5338 342.617 57.6529 342.585 57.7656L331.601 95.7051C331.537 95.9287 331.373 96.114 331.145 96.2217C330.916 96.3293 330.642 96.3508 330.38 96.2814Z" fill="#EFF8FE"/>
  <path d="M328.361 63.8426C327.957 62.8418 327.063 62.373 326.049 61.9843C325.345 61.7167 316.204 59.0449 315.091 58.7163C314.415 58.5162 313.691 58.5485 313.035 58.8081C310.746 59.9513 303.444 63.8217 303.444 63.8217C303.444 63.8217 305.756 68.1158 307.429 70.6608C307.772 70.3784 308.68 69.8781 309.598 69.2982C308.57 73.0453 307.432 76.9766 306.498 80.6427C306.456 80.8085 306.48 80.9839 306.563 81.1332C306.646 81.2825 306.783 81.3946 306.946 81.4464C309.718 82.3254 317.322 84.3994 319.855 85.1836C320.024 85.2345 320.207 85.2162 320.364 85.1328C320.52 85.0495 320.637 84.9077 320.689 84.7385C321.312 82.7184 323.042 76.6117 324.302 72.6774C325.421 74.5467 325.072 74.2803 326.079 76.0728C327.774 75.3806 330.573 73.6215 332.471 72.6448C331.504 70.6032 329.32 66.2382 328.361 63.8426Z" fill="white"/>
  <path d="M318.134 72.5046C318.296 73.2637 315.064 78.4078 314.001 76.9616C313.218 75.8891 316.969 73.0577 318.14 75.4507" stroke="#FFB81E" stroke-width="0.75" stroke-linecap="round" stroke-linejoin="round"/>
  <path d="M319.689 67.1367C319.663 67.7969 318.432 68.865 317.455 69.6696C316.478 70.4742 314.297 72.1641 314.989 72.6506C315.516 73.0259 317.89 71.4173 318.153 72.4855" stroke="#FFB81E" stroke-width="0.75" stroke-linecap="round" stroke-linejoin="round"/>
  <path d="M312.158 70.9419C314.309 69.3963 315.923 68.0636 318.377 66.8345C319.298 66.3762 319.72 66.5875 319.688 67.1378" stroke="#FFB81E" stroke-width="0.75" stroke-linecap="round" stroke-linejoin="round"/>
  <path d="M323.428 61.8411C323.428 61.8411 315.394 59.477 314.283 59.1425C313.333 58.9305 312.339 59.067 311.481 59.5271L302.64 64.211C302.64 64.211 304.952 68.5051 306.627 71.0442C307.372 70.4267 310.927 68.7341 311.103 67.4879C311.126 67.3866 311.127 67.2817 311.107 67.18C311.087 67.0783 311.045 66.982 310.985 66.8974C310.925 66.8128 310.848 66.7418 310.758 66.6891C310.669 66.6363 310.569 66.6029 310.466 66.5912C310.313 66.6058 310.165 66.6539 310.033 66.732C309.9 66.8101 309.786 66.9164 309.7 67.0433C309.325 67.6732 309.068 68.3661 308.942 69.088C307.877 73.0087 306.667 77.1672 305.683 81.0286C305.641 81.1944 305.664 81.3698 305.747 81.5191C305.83 81.6684 305.967 81.7804 306.13 81.8323C308.903 82.7113 316.508 84.7794 319.039 85.5695C319.209 85.6203 319.392 85.6021 319.548 85.5187C319.705 85.4354 319.822 85.2936 319.874 85.1243C320.524 83.0104 322.391 76.4284 323.659 72.5345C323.874 71.7893 324.02 69.9681 322.948 70.2236C322.266 70.3823 322.486 71.4446 322.852 72.0273C324.75 75.0698 324.077 74.3853 325.264 76.4586C326.951 75.7706 329.751 74.0057 331.655 73.0307C330.691 71.0026 328.507 66.6375 327.546 64.2478C327.144 63.2411 326.202 62.8032 325.189 62.4145C324.479 62.1452 323.429 61.9049 323.287 61.8255C322.954 62.6427 322.314 63.2974 321.505 63.6501C320.696 64.0028 319.782 64.0255 318.956 63.7134C318.468 63.5961 318.011 63.3733 317.619 63.0607C317.226 62.7481 316.906 62.3533 316.682 61.9039" stroke="#2B1B9E" stroke-width="0.75" stroke-linecap="round" stroke-linejoin="round"/>
  <path d="M304.045 49.6346C304.522 49.7725 305.02 49.4981 305.158 49.0218C305.295 48.5454 305.021 48.0474 304.545 47.9095C304.068 47.7716 303.57 48.046 303.432 48.5224C303.295 48.9987 303.569 49.4967 304.045 49.6346Z" fill="#2B1B9E"/>
  <path d="M307.49 50.6319C307.966 50.7698 308.464 50.4954 308.602 50.019C308.74 49.5426 308.465 49.0447 307.989 48.9068C307.513 48.7688 307.015 49.0432 306.877 49.5196C306.739 49.996 307.013 50.4939 307.49 50.6319Z" fill="#2B1B9E"/>
  <path d="M300.944 48.7916C300.745 49.7809 296.336 65.1109 296.336 65.1109L290.892 83.9168C290.858 84.0293 290.851 84.1482 290.869 84.2667C290.888 84.3852 290.932 84.501 291 84.6073C291.068 84.7136 291.158 84.8084 291.264 84.8862C291.371 84.9641 291.492 85.0234 291.621 85.0607L330.374 96.2799C330.503 96.3172 330.637 96.3319 330.769 96.3231C330.901 96.3143 331.027 96.2821 331.141 96.2284C331.256 96.1748 331.355 96.1007 331.434 96.0104C331.513 95.9201 331.57 95.8155 331.602 95.7025L342.619 57.6457C342.653 57.5333 342.661 57.4143 342.642 57.2958C342.623 57.1773 342.579 57.0616 342.511 56.9552C342.443 56.8489 342.354 56.7541 342.247 56.6763C342.14 56.5985 342.019 56.5392 341.89 56.5018L338.365 55.4812C335.509 54.6546 333.363 58.3799 335.119 58.8883C336.198 59.2007 337.77 55.3026 328.782 52.7006L305.934 46.0859" stroke="#2B1B9E" stroke-linecap="round" stroke-linejoin="round"/>
  <path d="M308.202 80.2115L316.182 82.5218" stroke="#2B1B9E" stroke-width="0.75" stroke-linecap="round" stroke-linejoin="round"/>
  <path d="M317.584 82.9279L318.705 83.2524" stroke="#2B1B9E" stroke-width="0.75" stroke-linecap="round" stroke-linejoin="round"/>
  <path d="M254.115 15.1529L214.031 20.5441C213.47 20.6195 213.079 21.1516 213.157 21.7325L218.395 60.6768C218.473 61.2577 218.991 61.6675 219.552 61.5921L259.636 56.2009C260.196 56.1255 260.588 55.5935 260.509 55.0125L255.272 16.0683C255.193 15.4874 254.676 15.0775 254.115 15.1529Z" fill="#FFF7E8"/>
  <path d="M216.988 24.5047C217.479 24.4386 217.823 23.9813 217.756 23.4833C217.689 22.9853 217.237 22.6352 216.745 22.7013C216.254 22.7674 215.91 23.2247 215.976 23.7227C216.043 24.2207 216.496 24.5708 216.988 24.5047Z" fill="#2B1B9E"/>
  <path d="M220.536 24.0275C221.027 23.9614 221.371 23.5041 221.304 23.0061C221.237 22.5082 220.785 22.1581 220.293 22.2242C219.802 22.2903 219.457 22.7476 219.524 23.2455C219.591 23.7435 220.044 24.0936 220.536 24.0275Z" fill="#2B1B9E"/>
  <path d="M255.528 17.9721C255.606 19.1764 258.257 39.1108 258.257 39.1108L260.397 55.0208C260.434 55.3005 260.364 55.5832 260.201 55.807C260.038 56.0309 259.796 56.1777 259.527 56.2155L219.554 61.5918C219.284 61.6281 219.011 61.5514 218.793 61.3785C218.575 61.2056 218.432 60.9508 218.394 60.67L213.157 21.7332C213.139 21.5945 213.147 21.4535 213.181 21.3186C213.215 21.1836 213.274 21.0572 213.355 20.9466C213.437 20.8361 213.539 20.7436 213.655 20.6745C213.771 20.6054 213.9 20.5609 214.033 20.5438L252.742 15.3376" stroke="#2B1B9E" stroke-linecap="round" stroke-linejoin="round"/>
  <path d="M244.877 30.6316L242.77 30.9344C242.63 30.9549 242.486 30.9395 242.354 30.8898C242.221 30.84 242.103 30.7575 242.011 30.6498L240.712 29.1576C240.447 28.8587 240.113 28.6297 239.739 28.491C239.364 28.3522 238.962 28.308 238.566 28.3623L234.901 28.8865C234.485 28.9424 234.091 29.107 233.758 29.3635C233.426 29.62 233.167 29.9596 233.007 30.348L232.339 31.9915C232.283 32.1291 232.192 32.2495 232.075 32.3402C231.957 32.4308 231.818 32.4885 231.671 32.5073L225.683 33.3654C225.363 33.4108 225.056 33.5188 224.778 33.6831C224.501 33.8475 224.258 34.0649 224.065 34.323C223.871 34.5811 223.73 34.8748 223.65 35.1874C223.57 35.4999 223.553 35.8252 223.599 36.1445L225.338 48.2858C225.384 48.6052 225.492 48.9125 225.656 49.1901C225.82 49.4678 226.038 49.7103 226.296 49.9039C226.554 50.0974 226.848 50.2382 227.16 50.3182C227.473 50.3982 227.798 50.4158 228.117 50.37L247.306 47.6286C247.625 47.5832 247.932 47.4754 248.21 47.3112C248.487 47.1471 248.729 46.9299 248.922 46.672C249.116 46.4141 249.256 46.1207 249.336 45.8084C249.415 45.4962 249.433 45.1713 249.387 44.8524L247.651 32.7081C247.557 32.0656 247.213 31.4864 246.693 31.0973C246.173 30.7081 245.52 30.5407 244.877 30.6316Z" fill="#FFB41E"/>
  <path d="M244.878 30.6322L242.77 30.9349C242.63 30.9554 242.487 30.9401 242.354 30.8903C242.221 30.8406 242.103 30.758 242.011 30.6504L240.712 29.1582C240.448 28.8592 240.113 28.6303 239.739 28.4915C239.365 28.3528 238.962 28.3086 238.566 28.3628L234.901 28.887C234.485 28.943 234.091 29.1075 233.758 29.364C233.426 29.6206 233.167 29.9601 233.007 30.3485L232.339 31.992C232.284 32.1297 232.192 32.25 232.075 32.3407C231.957 32.4314 231.818 32.4891 231.671 32.5079L225.683 33.3659L225.384 33.4069C224.818 33.4875 224.308 33.7893 223.965 34.2459C223.622 34.7025 223.475 35.2765 223.555 35.8419L223.902 38.2527L225.333 48.2786L225.374 48.578C225.458 49.1374 225.759 49.6411 226.212 49.9798C226.665 50.3186 227.233 50.4651 227.794 50.3876L229.373 50.162L247.286 47.6022C247.605 47.5569 247.912 47.449 248.189 47.2849C248.466 47.1207 248.709 46.9035 248.902 46.6456C249.095 46.3878 249.235 46.0943 249.315 45.7821C249.395 45.4698 249.412 45.1449 249.366 44.826L247.63 32.6818C247.53 32.0483 247.186 31.4792 246.672 31.0962C246.157 30.7132 245.513 30.5466 244.878 30.6322Z" fill="#FE585A"/>
  <path d="M243.38 45.6393C246.31 43.3782 246.852 39.1704 244.591 36.2407C242.33 33.3111 238.122 32.769 235.192 35.0301C232.263 37.2911 231.721 41.499 233.982 44.4286C236.243 47.3583 240.451 47.9003 243.38 45.6393Z" fill="white"/>
  <path d="M224.476 42.253L223.62 36.141C223.574 35.8216 223.592 35.4964 223.672 35.1838C223.752 34.8713 223.893 34.5776 224.086 34.3194C224.28 34.0613 224.522 33.8439 224.8 33.6796C225.078 33.5153 225.385 33.4073 225.704 33.3618L231.357 32.554C231.61 32.52 231.85 32.4198 232.052 32.2637C232.255 32.1076 232.412 31.901 232.509 31.6647L233.047 30.3364C233.207 29.948 233.466 29.6085 233.798 29.352C234.13 29.0954 234.525 28.9309 234.941 28.8749L238.606 28.3507C239.001 28.2965 239.404 28.3407 239.779 28.4794C240.153 28.6182 240.487 28.8471 240.752 29.1461L241.84 30.3966C241.998 30.576 242.199 30.7133 242.424 30.7966C242.648 30.8798 242.89 30.9064 243.127 30.8738L244.917 30.6201C245.561 30.5284 246.215 30.6959 246.736 31.086C247.256 31.476 247.601 32.0566 247.694 32.7004" stroke="#2B1B9E" stroke-width="0.75" stroke-linecap="round" stroke-linejoin="round"/>
  <path d="M248.059 35.5562L249.387 44.8528C249.433 45.1717 249.416 45.4966 249.336 45.8088C249.256 46.1211 249.116 46.4145 248.923 46.6724C248.729 46.9303 248.487 47.1475 248.21 47.3117C247.932 47.4758 247.625 47.5836 247.306 47.629L228.118 50.3704C227.798 50.4162 227.473 50.3986 227.16 50.3186C226.848 50.2386 226.554 50.0978 226.296 49.9043C226.038 49.7107 225.821 49.4682 225.656 49.1906C225.492 48.9129 225.384 48.6056 225.338 48.2862L225.076 46.4536" stroke="#2B1B9E" stroke-width="0.75" stroke-linecap="round" stroke-linejoin="round"/>
  <path d="M243.378 45.6349C246.305 43.3755 246.847 39.1707 244.587 36.2432C242.328 33.3156 238.123 32.774 235.196 35.0334C232.268 37.2928 231.726 41.4976 233.986 44.4252C236.245 47.3527 240.45 47.8943 243.378 45.6349Z" stroke="#2B1B9E" stroke-width="0.75" stroke-linecap="round" stroke-linejoin="round"/>
  <path d="M229.794 36.524L231.245 46.6943" stroke="#2B1B9E" stroke-width="0.75" stroke-linecap="round" stroke-linejoin="round"/>
  <path d="M228.122 35.1918C228.051 34.6931 227.376 34.3769 226.615 34.4857C225.854 34.5945 225.294 35.0869 225.365 35.5857C225.437 36.0844 226.112 36.4005 226.873 36.2917C227.634 36.183 228.194 35.6905 228.122 35.1918Z" stroke="#2B1B9E" stroke-width="0.75" stroke-linecap="round" stroke-linejoin="round"/>
  <path d="M244.509 39.5894C244.594 40.1366 243.268 40.9274 242.981 40.1986C242.792 39.7315 243.834 39.2464 244.171 39.9852C244.671 41.0701 244.184 42.5986 243.444 43.5376C242.703 44.4734 241.663 45.1251 240.498 45.3826C239.333 45.6402 238.115 45.4879 237.049 44.9514C235.983 44.4149 235.135 43.527 234.648 42.4378C234.162 41.3485 234.065 40.1246 234.376 38.9727C234.687 37.8207 235.386 36.8114 236.355 36.115C237.324 35.4186 238.503 35.0779 239.694 35.1504C240.885 35.2229 242.014 35.7041 242.892 36.5129C243.769 37.3216 244.34 38.4083 244.509 39.5894" stroke="#2B1B9E" stroke-width="0.75" stroke-linecap="round" stroke-linejoin="round"/>
  <path d="M235.843 38.8428C235.843 38.8428 236.824 35.8421 240.44 36.6191" stroke="#2B1B9E" stroke-width="0.75" stroke-linecap="round" stroke-linejoin="round"/>
  <path d="M239.177 29.3683L234.475 30.0401L234.798 32.3024L239.5 31.6306L239.177 29.3683Z" fill="white"/>
  <path d="M238.481 29.4678L235.171 29.9406C234.787 29.9955 234.519 30.3519 234.574 30.7365L234.699 31.6059C234.754 31.9906 235.11 32.2579 235.495 32.2029L238.804 31.7301C239.189 31.6752 239.456 31.3188 239.401 30.9341L239.277 30.0648C239.222 29.6801 238.865 29.4128 238.481 29.4678Z" stroke="#2B1B9E" stroke-width="0.75" stroke-linecap="round" stroke-linejoin="round"/>
  <path d="M50.4203 44.238L11.2237 54.2098C10.6755 54.3492 10.3484 54.9228 10.4929 55.4909L20.181 93.5727C20.3255 94.1408 20.887 94.4883 21.4352 94.3488L60.6318 84.3771C61.18 84.2376 61.5071 83.6641 61.3626 83.096L51.6745 45.0142C51.53 44.4461 50.9685 44.0986 50.4203 44.238Z" fill="#FFF7E8"/>
  <path d="M14.617 57.8034C15.0976 57.6811 15.3868 57.1872 15.2629 56.7003C15.139 56.2133 14.649 55.9177 14.1683 56.04C13.6877 56.1623 13.3985 56.6561 13.5224 57.1431C13.6463 57.63 14.1363 57.9257 14.617 57.8034Z" fill="#2B1B9E"/>
  <path d="M18.0864 56.9208C18.5671 56.7985 18.8563 56.3046 18.7324 55.8177C18.6085 55.3307 18.1185 55.0351 17.6378 55.1574C17.1572 55.2797 16.868 55.7735 16.9919 56.2605C17.1158 56.7474 17.6058 57.0431 18.0864 56.9208Z" fill="#2B1B9E"/>
  <path d="M52.1481 46.8757C52.3644 48.063 57.2937 67.5595 57.2937 67.5595L61.2517 83.1172C61.3212 83.3907 61.284 83.6796 61.148 83.9207C61.0119 84.1618 60.7882 84.3356 60.5257 84.4041L21.4377 94.3482C21.1738 94.4153 20.893 94.3707 20.657 94.224C20.421 94.0773 20.2492 93.8407 20.1793 93.5661L10.493 55.4915C10.4585 55.3558 10.4501 55.215 10.4683 55.077C10.4865 54.939 10.531 54.8066 10.5991 54.6874C10.6673 54.5682 10.7578 54.4646 10.8654 54.3825C10.973 54.3005 11.0956 54.2415 11.2262 54.2092L49.0777 44.5796" stroke="#2B1B9E" stroke-linecap="round" stroke-linejoin="round"/>
  <path d="M35.1649 84.758C38.2285 83.9786 40.0719 80.8306 39.2823 77.7267C38.4926 74.6229 35.369 72.7385 32.3054 73.5179C29.2418 74.2972 27.3984 77.4453 28.1881 80.5491C28.9777 83.653 32.1014 85.5374 35.1649 84.758Z" fill="#FFB41E"/>
  <path d="M44.556 82.6982C47.6196 81.9189 49.463 78.7708 48.6734 75.6669C47.8837 72.5631 44.7601 70.6787 41.6965 71.4581C38.6329 72.2374 36.7895 75.3855 37.5792 78.4893C38.3688 81.5932 41.4925 83.4776 44.556 82.6982Z" fill="#FFB41E"/>
  <path d="M44.556 82.6982C47.6196 81.9189 49.463 78.7708 48.6734 75.6669C47.8837 72.5631 44.7601 70.6787 41.6965 71.4581C38.6329 72.2374 36.7895 75.3855 37.5792 78.4893C38.3688 81.5932 41.4925 83.4776 44.556 82.6982Z" stroke="#2B1B9E" stroke-width="0.75" stroke-linecap="round" stroke-linejoin="round"/>
  <path d="M35.0314 59.4057C38.3587 61.682 40.0675 65.8964 40.2456 69.223C40.2779 69.7959 44.2462 69.6613 44.1239 68.7345C43.8099 66.311 43.5797 65.4308 41.7728 61.7969C40.3645 58.9621 38.2964 56.7295 35.158 56.6082C33.7038 56.5402 32.2629 56.8915 31.0034 57.6212C29.7438 58.3509 28.7175 59.429 28.044 60.7299C24.5879 67.1395 27.8565 73.0007 28.0396 73.101L31.1896 71.5588C31.1896 71.5588 30.0895 67.2343 30.3122 65.6321C31.2572 58.6927 35.0314 59.4057 35.0314 59.4057Z" fill="#FFB41E"/>
  <path d="M34.824 56.5094C32.9152 56.4394 29.9567 57.1984 28.0606 60.7461C27.1018 62.5492 26.5745 64.5568 26.5207 66.6085C26.467 68.6602 26.8884 70.6991 27.7513 72.5626C27.7992 72.6624 27.8661 72.7519 27.9482 72.8257C28.0302 72.8996 28.1258 72.9565 28.2294 72.993C28.333 73.0295 28.4425 73.0451 28.5518 73.0387C28.6611 73.0323 28.7679 73.0042 28.8661 72.9559L30.6125 72.0901C30.7937 72.0024 30.9363 71.85 31.0129 71.6621C31.0895 71.4741 31.0948 71.2638 31.0277 71.0712C30.2313 68.7832 28.1224 61.5095 34.6906 59.4043C34.6906 59.4043 37.7982 59.38 36.8562 58.2786C36.0651 57.3495 33.6238 59.1009 34.9124 59.731C37.9491 61.1872 39.6096 65.2862 40.3256 68.9677C40.5843 70.3068 44.2529 69.7375 44.0073 68.5738C43.558 66.2341 42.8064 63.9625 41.7717 61.8177C41.1388 60.4443 40.2116 59.2293 39.0579 58.2613" stroke="#2B1B9E" stroke-width="0.75" stroke-linecap="round" stroke-linejoin="round"/>
  <path d="M32.3204 76.6225C31.9826 76.8471 31.695 77.1404 31.4758 77.4839C31.2566 77.8275 31.1106 78.2138 31.047 78.6183C30.9835 79.0229 31.0037 79.4369 31.1065 79.8342C31.2093 80.2315 31.3923 80.6034 31.6441 80.9264C32.0829 81.4611 32.689 81.8282 33.361 81.9665C34.0329 82.1048 34.73 82.0057 35.3356 81.686" stroke="#2B1B9E" stroke-width="0.75" stroke-linecap="round" stroke-linejoin="round"/>
  <path d="M44.4148 80.9543C43.6936 81.1378 42.9334 81.1004 42.2304 80.847C41.5274 80.5936 40.9132 80.1355 40.4654 79.5306C40.0177 78.9257 39.7565 78.2011 39.7148 77.4486C39.6732 76.6961 39.8531 75.9494 40.2316 75.303C40.6102 74.6565 41.1704 74.1393 41.8416 73.8168C42.5127 73.4943 43.2645 73.3809 44.002 73.491C44.7395 73.6011 45.4296 73.9298 45.9849 74.4355C46.5401 74.9411 46.9357 75.601 47.1217 76.3318" stroke="#2B1B9E" stroke-width="0.75" stroke-linecap="round" stroke-linejoin="round"/>
  <path d="M37.8444 83.1997C37.1421 83.9274 36.2612 84.4533 35.2907 84.7245C34.3202 84.9957 33.2946 85.0025 32.3174 84.7441C31.3402 84.4858 30.4462 83.9715 29.7257 83.2533C29.0051 82.535 28.4836 81.6383 28.2138 80.6537C27.9441 79.669 27.9356 78.6315 28.1893 77.6458C28.443 76.6601 28.9498 75.7613 29.6586 75.0401C30.3674 74.319 31.253 73.8011 32.2259 73.5387C33.1988 73.2764 34.2245 73.279 35.1994 73.5462" stroke="#2B1B9E" stroke-width="0.75" stroke-linecap="round" stroke-linejoin="round"/>
  <path d="M41.2034 69.7925L41.3682 71.2577" stroke="#2B1B9E" stroke-width="0.75" stroke-linecap="round" stroke-linejoin="round"/>
  <path d="M43.5455 69.4361C43.7216 69.9875 43.8045 70.5645 43.7906 71.1427" stroke="#2B1B9E" stroke-width="0.75" stroke-linecap="round" stroke-linejoin="round"/>
  <path d="M28.7952 73.0989C28.7952 73.0989 29.4598 74.5966 29.7837 74.6802" stroke="#2B1B9E" stroke-width="0.75" stroke-linecap="round" stroke-linejoin="round"/>
  <path d="M30.8105 72.0523C30.8273 72.1182 31.1798 73.5038 31.7471 73.6277" stroke="#2B1B9E" stroke-width="0.75" stroke-linecap="round" stroke-linejoin="round"/>
  <path d="M34.0756 75.9403C34.0756 75.9403 35.4079 75.4289 36.7481 77.0549" stroke="#2B1B9E" stroke-width="0.75" stroke-linecap="round" stroke-linejoin="round"/>
  <path d="M436.056 54.3714L398.764 70.0274C398.243 70.2463 398.004 70.8619 398.231 71.4024L413.441 107.634C413.668 108.174 414.275 108.435 414.796 108.216L452.089 92.5601C452.61 92.3412 452.849 91.7256 452.622 91.1851L437.411 54.9536C437.184 54.4131 436.578 54.1524 436.056 54.3714Z" fill="#F5F4FE"/>
  <path d="M402.651 73.0801C403.108 72.8881 403.321 72.3569 403.127 71.8936C402.932 71.4303 402.404 71.2104 401.947 71.4024C401.49 71.5943 401.277 72.1255 401.471 72.5888C401.666 73.0521 402.194 73.272 402.651 73.0801Z" fill="#2B1B9E"/>
  <path d="M405.952 71.6942C406.41 71.5022 406.623 70.971 406.428 70.5078C406.234 70.0445 405.705 69.8245 405.248 70.0165C404.791 70.2085 404.578 70.7397 404.772 71.2029C404.967 71.6662 405.495 71.8862 405.952 71.6942Z" fill="#2B1B9E"/>
  <path d="M438.155 56.7247C438.544 57.867 446.301 76.4206 446.301 76.4206L452.515 91.2225C452.625 91.4827 452.631 91.7739 452.532 92.0325C452.433 92.291 452.237 92.496 451.988 92.6025L414.799 108.215C414.548 108.32 414.263 108.318 414.008 108.208C413.753 108.097 413.548 107.889 413.439 107.628L398.231 71.403C398.177 71.2739 398.148 71.1358 398.145 70.9967C398.143 70.8575 398.167 70.72 398.217 70.592C398.267 70.4641 398.341 70.3483 398.435 70.2512C398.53 70.1541 398.642 70.0777 398.767 70.0264L434.779 54.9077" stroke="#2B1B9E" stroke-linecap="round" stroke-linejoin="round"/>
  <path d="M440.809 86.4351L418.722 95.7078C418.254 95.9043 417.727 95.9068 417.257 95.7148C416.787 95.5227 416.413 95.1519 416.216 94.6839L415.516 92.7619C413.05 86.8864 413.515 81.658 419.391 79.1914L426.163 76.3484C432.038 73.8818 437.456 73.4851 439.923 79.3606L441.84 83.9265C441.937 84.1589 441.988 84.4082 441.989 84.6602C441.99 84.9121 441.941 85.1618 441.845 85.3949C441.75 85.628 441.609 85.8398 441.431 86.0183C441.253 86.1968 441.042 86.3385 440.809 86.4351Z" fill="#79B5EF"/>
  <path d="M415.821 87.5783C416.188 87.3443 416.456 86.9824 416.572 86.5626C416.676 86.1525 416.698 85.7262 416.638 85.3075C416.854 85.6341 417.153 85.8968 417.504 86.068C417.856 86.2392 418.247 86.3127 418.637 86.2808C418.637 86.2808 417.628 87.3713 417.917 88.3538C417.653 88.1252 417.365 87.9258 417.058 87.759C416.666 87.6007 416.242 87.5387 415.821 87.5783Z" fill="white"/>
  <path d="M413.95 88.069C413.76 86.3534 414.091 84.6203 414.903 83.0966C415.714 81.5728 416.966 80.3296 418.496 79.5299" stroke="#2B1B9E" stroke-width="0.75" stroke-linecap="round" stroke-linejoin="round"/>
  <path d="M433.534 85.1335C433.897 84.8979 434.162 84.5378 434.278 84.1208C434.382 83.7107 434.404 83.2844 434.345 82.8657C434.56 83.1934 434.86 83.4566 435.213 83.6275C435.566 83.7983 435.959 83.8703 436.35 83.836C436.35 83.836 435.342 84.9265 435.623 85.9119C435.359 85.6834 435.071 85.484 434.764 85.3172C434.374 85.1606 433.953 85.0977 433.534 85.1335Z" fill="white"/>
  <path d="M435.499 79.3167C435.867 79.0827 436.134 78.7208 436.251 78.301C436.351 77.8904 436.373 77.4647 436.317 77.0459C436.532 77.3725 436.831 77.6351 437.183 77.8064C437.534 77.9776 437.926 78.0511 438.315 78.0191C438.315 78.0191 437.307 79.1097 437.596 80.0922C437.33 79.8628 437.04 79.6643 436.73 79.5003C436.34 79.3418 435.918 79.2788 435.499 79.3167Z" fill="white"/>
  <path d="M425.66 83.4477C426.027 83.2137 426.295 82.8518 426.411 82.432C426.511 82.0214 426.533 81.5958 426.477 81.1769C426.692 81.5035 426.992 81.7662 427.343 81.9374C427.695 82.1086 428.086 82.1821 428.476 82.1502C428.476 82.1502 427.467 83.2407 427.756 84.2232C427.491 83.9939 427.2 83.7953 426.89 83.6313C426.5 83.4728 426.079 83.4099 425.66 83.4477Z" fill="white"/>
  <path d="M421.778 90.821C422.144 90.5854 422.412 90.2241 422.53 89.8053C422.626 89.3942 422.649 88.9692 422.596 88.5502C422.837 89.1244 423.736 89.538 424.594 89.5234C424.594 89.5234 423.586 90.614 423.875 91.5965C423.609 91.3671 423.319 91.1686 423.009 91.0046C422.618 90.8481 422.197 90.7852 421.778 90.821Z" fill="white"/>
  <path d="M415.972 94.1195C416.136 94.6596 416.369 95.1763 416.666 95.6565C416.905 95.8524 417.195 95.9747 417.502 96.0083C417.808 96.042 418.118 95.9855 418.393 95.8458L441.503 86.1439C442.427 85.4017 442.204 84.5564 441.791 83.4942C440.842 81.0756 439.439 77.8918 437.807 76.4187C436.953 75.6491 435.939 75.0789 434.837 74.7493C433.736 74.4196 432.575 74.3387 431.439 74.5125" stroke="#2B1B9E" stroke-width="0.75" stroke-linecap="round" stroke-linejoin="round"/>
  <path d="M424.499 69.854C423.494 69.9303 417.888 72.3331 418.121 76.5186C418.352 80.5404 419.93 82.456 419.93 82.456C420.017 82.7471 420.198 83.0011 420.445 83.1778C420.692 83.3544 420.991 83.4437 421.295 83.4315C421.484 83.3848 421.661 83.2991 421.814 83.1798C421.968 83.0606 422.094 82.9104 422.186 82.7391C422.278 82.5678 422.333 82.3791 422.347 82.1852C422.362 81.9914 422.335 81.7967 422.27 81.6137L420.611 77.8375C420.061 76.528 420.476 74.3769 421.667 73.6048C422.479 72.9786 423.412 72.528 424.407 72.2818C426.254 72.0332 427.519 72.8863 427.901 73.7966L429.889 78.415C430.048 78.7169 430.316 78.9474 430.638 79.0603C430.96 79.1732 431.313 79.16 431.626 79.0235C431.939 78.8869 432.188 78.6371 432.325 78.3241C432.461 78.0112 432.474 77.6583 432.36 77.3362L430.448 72.917C429.394 70.9953 427.864 69.6276 424.499 69.854Z" fill="#FFF7E8"/>
  <path d="M422.283 81.858C422.173 81.3027 421.277 79.463 420.616 77.8874C420.077 76.4662 420.199 74.0098 423.096 72.7687C425.994 71.5276 427.445 72.7471 428.031 74.0659C428.031 74.0659 429.084 76.5729 429.401 77.3292C429.562 77.9989 429.94 78.5963 430.477 79.0276C430.477 79.0276 431.169 79.4207 431.575 79.1515" stroke="#2B1B9E" stroke-width="0.75" stroke-linecap="round" stroke-linejoin="round"/>
  <path d="M432.192 77.443C431.89 76.5482 430.931 74.323 430.736 73.9765C429.238 70.5447 426.927 68.9448 422.639 70.5805C419.031 71.9549 418.134 74.2919 418.072 76.4596C418.01 78.6273 418.964 80.7806 420.014 82.8109C420.071 82.9676 420.178 83.1013 420.318 83.1912C420.459 83.2811 420.625 83.3223 420.791 83.3083" stroke="#2B1B9E" stroke-width="0.75" stroke-linecap="round" stroke-linejoin="round"/>
  <circle cx="77.7079" cy="18.7865" r="3.8427" stroke="#282294" stroke-width="0.853933"/>
  <circle cx="196.832" cy="66.1798" r="2.5618" stroke="#282294" stroke-width="0.853933"/>
  <circle cx="412.022" cy="16.6517" r="3.41573" stroke="#282294" stroke-width="0.853933"/>
  <circle cx="6.83157" cy="91.3708" r="2.13483" stroke="#282294" stroke-width="0.853933"/>
  <circle cx="326.629" cy="110.584" r="5.1236" stroke="#282294" stroke-width="0.853933"/>
  <path d="M96.4944 49.5281L96.4944 59.7753M101.618 54.6517L91.3708 54.6517" stroke="#282294" stroke-width="0.853933" stroke-linecap="round"/>
  <path d="M273.258 10.2472L273.258 20.4944M278.382 15.3708L268.135 15.3708" stroke="#282294" stroke-width="0.853933" stroke-linecap="round"/>
  <path d="M228.854 92.2247L228.854 99.0562M232.27 95.6404L225.438 95.6404" stroke="#282294" stroke-width="0.853933" stroke-linecap="round"/>
  <path d="M400.494 24.764L400.494 35.0112M405.618 29.8876L395.371 29.8876" stroke="#282294" stroke-width="0.853933" stroke-linecap="round"/>
  <path d="M40.9888 99.0562L40.9888 104.18M43.5506 101.618L38.427 101.618" stroke="#282294" stroke-width="0.853933" stroke-linecap="round"/>
  </g>
  <defs>
  <clipPath id="clip0_2406_10458">
  <rect width="456" height="122.966" rx="15.983" fill="white"/>
  </clipPath>
  </defs>
  </svg>
